# xmcd CD database file
#
# Track frame offsets:
#	150
#	16789
#	44119
#	61516
#	87317
#	108824
#	127467
#	147454
#	173658
#	178152
#
# Disc length: 2701 seconds
#
# Revision: 0
# Processed by: cddbd v1.5.2PL0 Copyright (c) Steve Scherf et al.
# Submitted via: CDex 1.70beta2
#
DISCID=890a8b0a
DTITLE=AudioTraffic - AudioTraffic
DYEAR=2008
DGENRE=
TTITLE0=Happy?
TTITLE1=Better
TTITLE2=Napaj
TTITLE3=Way Too Long
TTITLE4=12:34
TTITLE5=The Official
TTITLE6=TDP
TTITLE7=101
TTITLE8=Fading Out
TTITLE9=Lost City
EXTD=YEAR: 2008
EXTT0=
EXTT1=
EXTT2=
EXTT3=
EXTT4=
EXTT5=
EXTT6=
EXTT7=
EXTT8=
EXTT9=
PLAYORDER=
